<?xml version="1.0" encoding="UTF-8"?>
<svg xmlns="http://www.w3.org/2000/svg" xmlns:xlink="http://www.w3.org/1999/xlink" width="1064px" height="712px" viewBox="0 0 1063 712" version="1.1">
<g id="surface1">
<path style=" stroke:none;fill-rule:nonzero;fill:rgb(0%,0%,0%);fill-opacity:1;" d="M 717.574219 153.554688 C 708.085938 163.601562 700.339844 172.066406 700.339844 172.382812 C 700.339844 172.699219 701.84375 173.410156 703.582031 173.964844 C 706.507812 174.835938 707.058594 174.835938 708.246094 173.492188 C 709.035156 172.699219 715.28125 165.660156 722.15625 157.828125 C 729.035156 149.996094 734.882812 143.585938 735.199219 143.585938 C 735.59375 143.585938 741.761719 150.3125 749.03125 158.617188 C 756.226562 166.84375 762.46875 173.964844 762.785156 174.28125 C 763.339844 174.914062 770.691406 173.253906 770.691406 172.460938 C 770.691406 172.226562 768.242188 169.535156 765.15625 166.527344 L 759.625 161.070312 L 759.625 144.773438 L 752.511719 144.773438 L 752.511719 148.886719 L 752.429688 153.078125 L 743.972656 144.140625 C 739.308594 139.234375 735.359375 135.28125 735.121094 135.28125 C 734.882812 135.28125 726.980469 143.507812 717.574219 153.554688 Z M 717.574219 153.554688 "/>
<path style=" stroke:none;fill-rule:nonzero;fill:rgb(0%,0%,0%);fill-opacity:1;" d="M 737.808594 157.984375 C 736.464844 158.222656 736.148438 158.855469 736.226562 160.832031 C 736.304688 163.046875 736.621094 163.363281 738.519531 163.363281 C 739.707031 163.363281 740.652344 163.128906 740.652344 162.730469 C 740.652344 162.414062 740.652344 161.070312 740.652344 159.804688 C 740.652344 158.460938 740.417969 157.511719 740.101562 157.511719 C 739.707031 157.589844 738.675781 157.828125 737.808594 157.984375 Z M 737.808594 157.984375 "/>
<path style=" stroke:none;fill-rule:nonzero;fill:rgb(0%,0%,0%);fill-opacity:1;" d="M 728.796875 159.960938 C 728.796875 162.652344 729.984375 163.917969 732.039062 163.601562 C 733.539062 163.445312 734.015625 162.8125 734.171875 160.753906 C 734.410156 158.300781 734.328125 158.222656 731.640625 158.222656 C 729.191406 158.222656 728.796875 158.460938 728.796875 159.960938 Z M 728.796875 159.960938 "/>
<path style=" stroke:none;fill-rule:nonzero;fill:rgb(0%,0%,0%);fill-opacity:1;" d="M 729.429688 166.6875 C 728.796875 169.535156 729.585938 170.878906 732.039062 170.878906 C 734.25 170.878906 734.410156 170.722656 734.171875 168.269531 C 734.015625 166.210938 733.539062 165.660156 731.878906 165.5 C 730.378906 165.34375 729.667969 165.660156 729.429688 166.6875 Z M 729.429688 166.6875 "/>
<path style=" stroke:none;fill-rule:nonzero;fill:rgb(0%,0%,0%);fill-opacity:1;" d="M 736.703125 166.84375 C 736.703125 167.636719 736.464844 168.902344 736.226562 169.613281 C 735.832031 170.644531 736.304688 170.878906 738.359375 170.878906 C 740.890625 170.878906 741.050781 170.722656 741.050781 168.269531 C 741.050781 166.054688 740.734375 165.738281 738.914062 165.5 C 737.175781 165.261719 736.703125 165.578125 736.703125 166.84375 Z M 736.703125 166.84375 "/>
<path style=" stroke:none;fill-rule:nonzero;fill:rgb(0%,0%,0%);fill-opacity:1;" d="M 679.789062 170.878906 C 679.789062 171.277344 680.027344 171.671875 680.421875 171.828125 C 680.738281 171.910156 687.613281 179.503906 695.597656 188.679688 C 728.164062 225.78125 734.644531 232.980469 735.277344 232.980469 C 735.59375 232.980469 748.398438 218.742188 763.65625 201.417969 C 778.910156 184.089844 790.769531 170.089844 789.976562 170.484375 C 789.109375 170.800781 787.605469 171.355469 786.5 171.671875 C 785.394531 172.066406 773.378906 176.101562 759.863281 180.691406 L 735.121094 188.996094 L 707.453125 179.660156 C 692.277344 174.519531 679.789062 170.5625 679.789062 170.878906 Z M 679.789062 170.878906 "/>
<path style=" stroke:none;fill-rule:nonzero;fill:rgb(0%,0%,0%);fill-opacity:1;" d="M 667.140625 187.890625 L 655.679688 201.019531 L 655.441406 196.589844 L 655.207031 192.160156 L 648.566406 192.636719 L 648.488281 200.941406 L 648.328125 209.25 L 635.679688 223.648438 C 628.726562 231.480469 623.191406 238.203125 623.429688 238.441406 C 623.746094 238.679688 625.878906 238.914062 628.332031 238.914062 L 632.757812 238.914062 L 655.679688 212.808594 C 668.25 198.410156 678.761719 186.78125 679.078125 186.859375 C 679.628906 187.097656 707.613281 218.820312 725.871094 239.945312 L 735.277344 250.78125 L 746.425781 237.808594 C 769.898438 210.671875 790.847656 186.78125 791.320312 186.78125 C 791.636719 186.703125 800.648438 196.75 811.398438 209.011719 C 839.300781 240.894531 837.246094 238.914062 842.78125 238.914062 C 845.308594 238.914062 847.363281 238.679688 847.363281 238.441406 C 847.363281 238.203125 840.960938 230.6875 833.136719 221.828125 L 818.910156 205.609375 L 818.910156 191.449219 L 811.875 191.449219 L 812.269531 194.613281 C 812.503906 196.355469 812.503906 197.777344 812.347656 197.777344 C 812.109375 197.777344 807.445312 192.636719 801.914062 186.308594 C 796.378906 179.976562 791.636719 174.835938 791.320312 174.914062 C 791.085938 174.914062 778.4375 189.15625 763.179688 206.558594 C 748.003906 223.882812 735.277344 238.046875 735.042969 237.964844 C 734.726562 237.808594 722.15625 223.648438 707.058594 206.480469 C 691.960938 189.3125 679.394531 175.152344 679.078125 174.992188 C 678.839844 174.914062 673.386719 180.691406 667.140625 187.890625 Z M 667.140625 187.890625 "/>
<path style=" stroke:none;fill-rule:nonzero;fill:rgb(0%,0%,0%);fill-opacity:1;" d="M 670.304688 207.585938 L 670.304688 211.226562 L 676.707031 211.226562 L 676.46875 207.824219 C 676.230469 204.582031 676.152344 204.503906 673.308594 204.265625 L 670.304688 204.027344 Z M 670.304688 207.585938 "/>
<path style=" stroke:none;fill-rule:nonzero;fill:rgb(0%,0%,0%);fill-opacity:1;" d="M 679 207.585938 C 679 211.304688 679.867188 212.019531 683.582031 211.386719 C 685.085938 211.070312 685.320312 210.515625 685.320312 207.585938 L 685.320312 204.105469 L 679 204.105469 Z M 679 207.585938 "/>
<path style=" stroke:none;fill-rule:nonzero;fill:rgb(0%,0%,0%);fill-opacity:1;" d="M 784.128906 209.167969 L 784.128906 212.808594 L 790.53125 212.808594 L 790.292969 209.40625 C 790.058594 206.164062 789.976562 206.085938 787.132812 205.847656 L 784.128906 205.609375 Z M 784.128906 209.167969 "/>
<path style=" stroke:none;fill-rule:nonzero;fill:rgb(0%,0%,0%);fill-opacity:1;" d="M 792.824219 209.25 L 792.824219 212.808594 L 799.148438 212.808594 L 799.148438 205.6875 L 792.824219 205.6875 Z M 792.824219 209.25 "/>
<path style=" stroke:none;fill-rule:nonzero;fill:rgb(0%,0%,0%);fill-opacity:1;" d="M 670.304688 217.949219 L 670.304688 221.511719 L 676.628906 221.511719 L 676.628906 214.390625 L 670.304688 214.390625 Z M 670.304688 217.949219 "/>
<path style=" stroke:none;fill-rule:nonzero;fill:rgb(0%,0%,0%);fill-opacity:1;" d="M 679.15625 217.949219 L 679.234375 221.511719 L 685.320312 221.511719 L 685.320312 214.390625 L 679.078125 214.390625 Z M 679.15625 217.949219 "/>
<path style=" stroke:none;fill-rule:nonzero;fill:rgb(0%,0%,0%);fill-opacity:1;" d="M 259.109375 216.449219 C 254.367188 218.980469 254.527344 217.316406 254.527344 275.308594 L 254.527344 328.3125 L 214.609375 328.3125 C 171.210938 328.3125 171.132812 328.3125 167.734375 332.664062 L 165.996094 334.878906 L 165.996094 402.4375 C 165.996094 460.820312 166.152344 470.316406 167.179688 472.292969 C 169.710938 477.199219 167.8125 477.039062 213.816406 477.039062 L 255.789062 477.039062 L 257.132812 479.414062 C 259.742188 483.84375 261.402344 484.160156 280.609375 484.160156 L 298 484.160156 L 301.003906 481.46875 L 303.929688 478.78125 L 304.164062 444.445312 C 304.324219 425.617188 304.164062 408.6875 303.929688 406.789062 C 303.613281 404.96875 302.585938 402.4375 301.558594 401.25 C 299.820312 399.195312 299.34375 399.117188 289.9375 398.640625 C 284.640625 398.402344 331.359375 398.167969 393.882812 398.085938 L 507.46875 397.929688 L 507.46875 463.589844 L 706.664062 463.589844 L 706.664062 403.070312 C 706.664062 350.304688 706.507812 342.15625 705.476562 340.179688 C 704.765625 338.832031 704.132812 337.726562 704.054688 337.644531 C 703.976562 337.488281 671.566406 337.25 631.964844 337.011719 L 560.035156 336.617188 L 559.640625 278.3125 L 559.246094 219.929688 L 557.03125 217.792969 L 554.898438 215.578125 L 408.03125 215.417969 C 279.265625 215.261719 261.007812 215.417969 259.109375 216.449219 Z M 550.945312 279.65625 C 550.945312 310.351562 550.945312 335.667969 550.945312 335.984375 C 550.945312 336.378906 541.855469 336.777344 530.710938 337.011719 C 510.632812 337.410156 510.472656 337.410156 508.972656 339.308594 C 507.550781 341.046875 507.46875 342.710938 507.46875 365.175781 L 507.46875 389.226562 L 280.609375 389.226562 L 280.609375 362.488281 C 280.609375 337.171875 280.53125 335.667969 279.03125 333.214844 C 276.972656 329.894531 273.257812 328.3125 267.566406 328.3125 L 263.21875 328.3125 L 263.21875 223.882812 L 550.945312 223.882812 Z M 224.488281 334.324219 C 224.488281 334.957031 223.777344 335.429688 222.90625 335.429688 C 221.167969 335.429688 220.695312 333.375 222.355469 332.820312 C 223.617188 332.347656 224.488281 332.898438 224.488281 334.324219 Z M 275.867188 369.84375 L 275.867188 397.929688 L 269.859375 397.929688 C 262.90625 397.929688 259.425781 399.273438 257.449219 402.597656 C 256.265625 404.652344 256.105469 408.054688 256.105469 434.636719 L 256.105469 464.382812 L 169.945312 464.382812 L 169.945312 341.761719 L 275.867188 341.761719 Z M 700.339844 400.699219 L 700.339844 458.84375 L 513.003906 458.84375 L 513.003906 342.550781 L 700.339844 342.550781 Z M 285.351562 401.09375 C 285.351562 401.566406 282.980469 401.882812 279.820312 401.882812 C 276.660156 401.882812 274.285156 401.566406 274.285156 401.09375 C 274.285156 400.617188 276.660156 400.300781 279.820312 400.300781 C 282.980469 400.300781 285.351562 400.617188 285.351562 401.09375 Z M 281.402344 404.335938 C 281.402344 404.734375 280.847656 405.050781 280.214844 405.050781 C 279.03125 405.050781 278.632812 404.097656 279.503906 403.230469 C 280.136719 402.597656 281.402344 403.308594 281.402344 404.335938 Z M 301.164062 441.441406 L 301.164062 475.535156 L 280.058594 475.300781 L 258.875 475.0625 L 258.636719 441.203125 L 258.476562 407.421875 L 301.164062 407.421875 Z M 230.023438 469.523438 C 231.679688 471.582031 230.023438 472.292969 223.699219 472.292969 C 217.453125 472.292969 216.03125 471.660156 216.898438 469.523438 C 217.53125 467.863281 228.597656 467.863281 230.023438 469.523438 Z M 285.195312 479.175781 C 284.957031 480.285156 284.007812 480.679688 280.292969 480.835938 C 277.765625 480.996094 275.316406 480.757812 274.839844 480.285156 C 273.339844 478.78125 275.316406 477.832031 280.292969 477.832031 C 284.800781 477.832031 285.433594 477.988281 285.195312 479.175781 Z M 285.195312 479.175781 "/>
<path style=" stroke:none;fill-rule:nonzero;fill:rgb(0%,0%,0%);fill-opacity:1;" d="M 784.128906 219.613281 L 784.128906 223.171875 L 787.132812 222.933594 C 789.976562 222.699219 790.058594 222.617188 790.292969 219.296875 L 790.53125 215.972656 L 784.128906 215.972656 Z M 784.128906 219.613281 "/>
<path style=" stroke:none;fill-rule:nonzero;fill:rgb(0%,0%,0%);fill-opacity:1;" d="M 792.824219 219.535156 L 792.824219 223.09375 L 799.148438 223.09375 L 799.148438 215.972656 L 792.824219 215.972656 Z M 792.824219 219.535156 "/>
<path style=" stroke:none;fill-rule:nonzero;fill:rgb(0%,0%,0%);fill-opacity:1;" d="M 686.902344 255.210938 C 644.140625 258.296875 608.570312 264.46875 585.804688 272.933594 C 579.796875 275.148438 574.183594 277.757812 578.058594 276.574219 C 585.488281 274.199219 614.65625 269.214844 633.941406 267 C 691.011719 260.355469 764.921875 260.195312 821.28125 266.605469 C 844.597656 269.292969 874.238281 274.355469 880.40625 276.652344 C 881.117188 276.96875 881.433594 276.808594 881.117188 276.335938 C 880.800781 275.859375 875.109375 273.644531 868.46875 271.507812 C 843.332031 263.28125 812.742188 258.058594 771.875 255.210938 C 752.984375 253.867188 705.164062 253.867188 686.902344 255.210938 Z M 686.902344 255.210938 "/>
<path style=" stroke:none;fill-rule:nonzero;fill:rgb(0%,0%,0%);fill-opacity:1;" d="M 656.550781 297.457031 C 652.992188 298.566406 649.832031 302.125 648.40625 306.714844 C 647.300781 310.351562 647.222656 311.539062 648.089844 314.703125 C 650.621094 324.277344 659.316406 328.628906 667.21875 324.199219 C 670.621094 322.296875 671.015625 321.269531 668.878906 319.371094 C 667.617188 318.183594 667.300781 318.183594 665.164062 319.609375 C 662.160156 321.585938 660.265625 321.585938 657.101562 319.609375 C 652.4375 316.761719 651.648438 308.136719 655.679688 304.101562 C 658.527344 301.253906 661.449219 300.859375 664.847656 302.835938 C 667.617188 304.417969 667.773438 304.417969 669.039062 303.074219 C 670.777344 301.175781 670.621094 300.464844 668.167969 298.722656 C 665.796875 296.984375 659.949219 296.351562 656.550781 297.457031 Z M 656.550781 297.457031 "/>
<path style=" stroke:none;fill-rule:nonzero;fill:rgb(0%,0%,0%);fill-opacity:1;" d="M 772.273438 301.414062 C 772.273438 305.132812 772.035156 306.160156 771.085938 306.160156 C 770.375 306.160156 769.898438 306.871094 769.898438 308.136719 C 769.898438 309.246094 770.453125 310.351562 771.085938 310.589844 C 772.035156 310.984375 772.273438 312.566406 772.273438 318.105469 L 772.273438 325.148438 L 778.042969 325.148438 L 777.566406 318.027344 L 777.09375 310.90625 L 779.070312 310.90625 C 780.652344 310.90625 780.964844 310.511719 780.964844 308.535156 C 780.964844 306.714844 780.652344 306.160156 779.386719 306.160156 C 777.964844 306.160156 777.804688 305.605469 777.804688 301.414062 L 777.804688 296.667969 L 772.273438 296.667969 Z M 772.273438 301.414062 "/>
<path style=" stroke:none;fill-rule:nonzero;fill:rgb(0%,0%,0%);fill-opacity:1;" d="M 792.429688 297.617188 C 786.894531 300.621094 784.601562 304.894531 784.761719 311.699219 C 784.996094 320.398438 790.136719 325.9375 798.039062 325.9375 C 811.476562 325.9375 816.300781 306.238281 804.757812 298.484375 C 801.835938 296.507812 795.273438 296.035156 792.429688 297.617188 Z M 801.4375 302.601562 C 803.96875 303.867188 806.261719 308.058594 806.261719 311.300781 C 806.261719 314.546875 803.96875 318.738281 801.4375 320.003906 C 798.515625 321.507812 796.378906 321.507812 793.929688 319.925781 C 788.160156 316.128906 788.316406 305.84375 794.246094 302.679688 C 797.011719 301.175781 798.671875 301.097656 801.4375 302.601562 Z M 801.4375 302.601562 "/>
<path style=" stroke:none;fill-rule:nonzero;fill:rgb(0%,0%,0%);fill-opacity:1;" d="M 678.207031 308.375 C 676.074219 309.402344 675.285156 310.511719 674.335938 313.359375 C 672.992188 317.867188 673.625 320.636719 676.628906 323.644531 C 678.445312 325.464844 679.550781 325.9375 682.398438 325.9375 C 688.089844 325.9375 692.753906 321.113281 688.167969 319.925781 C 686.980469 319.6875 685.480469 320.003906 684.136719 320.875 C 682.160156 322.21875 682.003906 322.140625 680.34375 320.558594 L 678.683594 318.816406 L 685.164062 318.816406 C 691.644531 318.816406 691.644531 318.816406 691.644531 316.761719 C 691.644531 313.28125 689.195312 309.246094 686.429688 308.058594 C 682.949219 306.632812 681.527344 306.632812 678.207031 308.375 Z M 685.320312 312.882812 C 686.191406 313.914062 685.796875 314.070312 682.554688 314.070312 C 679.316406 314.070312 678.917969 313.914062 679.789062 312.882812 C 680.34375 312.25 681.605469 311.699219 682.554688 311.699219 C 683.503906 311.699219 684.769531 312.25 685.320312 312.882812 Z M 685.320312 312.882812 "/>
<path style=" stroke:none;fill-rule:nonzero;fill:rgb(0%,0%,0%);fill-opacity:1;" d="M 695.597656 316.050781 L 695.597656 325.148438 L 701.132812 325.148438 L 701.132812 319.765625 C 701.132812 313.515625 702.476562 310.75 704.847656 312.171875 C 705.953125 312.882812 706.347656 314.308594 706.507812 319.132812 L 706.742188 325.148438 L 712.199219 325.148438 L 712.199219 319.765625 C 712.199219 313.515625 713.542969 310.75 715.914062 312.171875 C 717.019531 312.882812 717.414062 314.308594 717.574219 319.132812 L 717.808594 325.148438 L 723.265625 325.148438 L 723.265625 318.816406 C 723.265625 312.964844 723.105469 312.410156 720.8125 309.71875 C 718.125 306.714844 714.964844 306.082031 711.011719 307.902344 C 709.511719 308.613281 708.796875 308.613281 708.085938 307.902344 C 707.535156 307.347656 704.765625 306.949219 701.367188 306.949219 L 695.597656 306.949219 Z M 695.597656 316.050781 "/>
<path style=" stroke:none;fill-rule:nonzero;fill:rgb(0%,0%,0%);fill-opacity:1;" d="M 731.878906 308.136719 C 729.507812 309.402344 727.214844 313.675781 727.214844 316.839844 C 727.214844 319.53125 729.113281 323.167969 731.328125 324.671875 C 735.121094 327.363281 743.816406 325.148438 743.816406 321.507812 C 743.816406 319.765625 740.257812 319.292969 738.046875 320.714844 C 736.226562 321.902344 735.988281 321.902344 734.25 320.480469 L 732.355469 318.898438 L 738.914062 318.816406 C 745.394531 318.816406 745.394531 318.816406 745.394531 316.761719 C 745.394531 309.484375 738.046875 304.816406 731.878906 308.136719 Z M 739.074219 312.882812 C 739.941406 313.914062 739.546875 314.070312 736.304688 314.070312 C 733.066406 314.070312 732.671875 313.914062 733.539062 312.882812 C 734.09375 312.25 735.359375 311.699219 736.304688 311.699219 C 737.253906 311.699219 738.519531 312.25 739.074219 312.882812 Z M 739.074219 312.882812 "/>
<path style=" stroke:none;fill-rule:nonzero;fill:rgb(0%,0%,0%);fill-opacity:1;" d="M 749.742188 307.585938 C 749.507812 307.820312 749.347656 311.855469 749.347656 316.601562 L 749.347656 325.148438 L 754.882812 325.148438 L 754.882812 319.765625 C 754.882812 315.496094 755.199219 314.070312 756.304688 313.042969 C 759.78125 309.878906 761.996094 312.488281 761.996094 319.6875 L 761.996094 325.148438 L 767.527344 325.148438 L 767.527344 319.609375 C 767.527344 309.878906 764.839844 307.03125 755.832031 307.109375 C 752.746094 307.109375 749.980469 307.347656 749.742188 307.585938 Z M 749.742188 307.585938 "/>
</g>
</svg>
